# xmcd CD database file
#
# Track frame offsets:
#	150
#	16122
#	31290
#	51465
#	67210
#	88307
#	104847
#	120860
#	138902
#	157777
#	174305
#	193542
#	212485
#
# Disc length: 3082 seconds
#
# Revision: 0
# Processed by: cddbd v1.4PL0 Copyright (c) Steve Scherf et al.
# Submitted via: CDex 1.50beta10
#
DISCID=ad0c080d
DTITLE=Reba McEntire - So good together
DYEAR=1900
DGENRE=Country
TTITLE0=Whe're so good together
TTITLE1='Til I said to you
TTITLE2=I'll be
TTITLE3=What do you say
TTITLE4=Roses
TTITLE5=I'm not your girl
TTITLE6=She wasn't good enough for him
TTITLE7=Nobody dies from a broken heart
TTITLE8=Back before the war
TTITLE9=When you're not trying to
TTITLE10=Where you end and I begin
TTITLE11=Solo yo, sola tu(We're all alone)
TTITLE12=Coração vazio(We're all alone)
EXTD=
EXTT0=
EXTT1=
EXTT2=
EXTT3=
EXTT4=
EXTT5=
EXTT6=
EXTT7=
EXTT8=
EXTT9=
EXTT10=
EXTT11=
EXTT12=
PLAYORDER=
